<svg width="41" height="41" viewBox="0 0 41 41" fill="none" xmlns="http://www.w3.org/2000/svg">
<path fill-rule="evenodd" clip-rule="evenodd" d="M35.6054 10.0647C36.1671 10.9054 36.1671 12.0758 36.1671 14.4166V35.6666H37.0005C37.6908 35.6666 38.2505 36.2262 38.2505 36.9166C38.2505 37.6069 37.6908 38.1666 37.0005 38.1666H3.66714C2.97679 38.1666 2.41714 37.6069 2.41714 36.9166C2.41714 36.2262 2.97679 35.6666 3.66714 35.6666H4.50048V14.4166C4.50048 12.0758 4.50048 10.9054 5.06225 10.0647C5.30544 9.70069 5.61794 9.38818 5.98191 9.14499C6.71728 8.65363 7.70485 8.59204 9.5072 8.58433C9.50034 9.06998 9.5004 9.57746 9.50047 10.1007L9.50048 10.2499V12.3332H7.83381C7.14346 12.3332 6.58381 12.8929 6.58381 13.5832C6.58381 14.2736 7.14346 14.8332 7.83381 14.8332H9.50048V17.3332H7.83381C7.14346 17.3332 6.58381 17.8929 6.58381 18.5832C6.58381 19.2736 7.14346 19.8332 7.83381 19.8332H9.50048V22.3332H7.83381C7.14346 22.3332 6.58381 22.8929 6.58381 23.5832C6.58381 24.2736 7.14346 24.8332 7.83381 24.8332H9.50048V35.6666H12.0005V10.2499C12.0005 7.10719 12.0005 5.53584 12.9768 4.55953C13.9531 3.58322 15.5244 3.58322 18.6671 3.58322H22.0005C25.1432 3.58322 26.7145 3.58322 27.6908 4.55953C28.6671 5.53584 28.6671 7.10719 28.6671 10.2499V35.6666H31.1671V24.8332H32.8338C33.5242 24.8332 34.0838 24.2736 34.0838 23.5832C34.0838 22.8929 33.5242 22.3332 32.8338 22.3332H31.1671V19.8332H32.8338C33.5242 19.8332 34.0838 19.2736 34.0838 18.5832C34.0838 17.8929 33.5242 17.3332 32.8338 17.3332H31.1671V14.8332H32.8338C33.5242 14.8332 34.0838 14.2736 34.0838 13.5832C34.0838 12.8929 33.5242 12.3332 32.8338 12.3332H31.1671V10.2499L31.1672 10.1007C31.1672 9.57747 31.1673 9.06999 31.1604 8.58433C32.9628 8.59205 33.9503 8.65363 34.6857 9.14499C35.0497 9.38818 35.3622 9.70069 35.6054 10.0647ZM21.5838 31.9166C21.5838 31.2262 21.0242 30.6666 20.3338 30.6666C19.6435 30.6666 19.0838 31.2262 19.0838 31.9166V35.6666H21.5838V31.9166ZM15.7505 25.2499C15.7505 24.5595 16.3101 23.9999 17.0005 23.9999H23.6671C24.3575 23.9999 24.9171 24.5595 24.9171 25.2499C24.9171 25.9402 24.3575 26.4999 23.6671 26.4999H17.0005C16.3101 26.4999 15.7505 25.9402 15.7505 25.2499ZM17.0005 18.9999C16.3101 18.9999 15.7505 19.5595 15.7505 20.2499C15.7505 20.9402 16.3101 21.4999 17.0005 21.4999H23.6671C24.3575 21.4999 24.9171 20.9402 24.9171 20.2499C24.9171 19.5595 24.3575 18.9999 23.6671 18.9999H17.0005ZM16.1671 11.9166C16.1671 9.38525 18.2192 7.33322 20.7505 7.33322C23.2818 7.33322 25.3338 9.38525 25.3338 11.9166C25.3338 14.4479 23.2818 16.4999 20.7505 16.4999C18.2192 16.4999 16.1671 14.4479 16.1671 11.9166ZM18.6671 11.9166C18.6671 10.766 19.5999 9.83322 20.7505 9.83322C21.9011 9.83322 22.8338 10.766 22.8338 11.9166C22.8338 13.0671 21.9011 13.9999 20.7505 13.9999C19.5999 13.9999 18.6671 13.0671 18.6671 11.9166Z" fill="#1A1528"/>
</svg>
