<svg width="62" height="62" viewBox="0 0 62 62" fill="none" xmlns="http://www.w3.org/2000/svg">
<path d="M33.8574 56.8333H28.1426C19.239 56.8333 14.7872 56.8333 11.7517 54.2194C8.71608 51.6056 8.0865 47.2302 6.82734 38.4793L6.10719 33.4744C5.12696 26.6621 4.63684 23.2559 6.03303 20.3436C7.42923 17.4313 10.401 15.661 16.3445 12.1205L19.922 9.98938C25.3194 6.77421 28.018 5.16663 31 5.16663C33.982 5.16663 36.6806 6.77421 42.078 9.98937L45.6555 12.1205C51.599 15.661 54.5708 17.4313 55.967 20.3436C57.3632 23.2559 56.8731 26.6621 55.8928 33.4745L55.1727 38.4793C53.9135 47.2302 53.2839 51.6056 50.2484 54.2194C47.2128 56.8333 42.761 56.8333 33.8574 56.8333Z" fill="#FFCE48"/>
<path d="M31 23.8959C32.0701 23.8959 32.9375 24.7633 32.9375 25.8334V31.6459L38.75 31.6459C39.8201 31.6459 40.6875 32.5134 40.6875 33.5834C40.6875 34.6535 39.8201 35.5209 38.75 35.5209L32.9375 35.5209V41.3334C32.9375 42.4034 32.0701 43.2709 31 43.2709C29.9299 43.2709 29.0625 42.4034 29.0625 41.3334V35.5209H23.25C22.1799 35.5209 21.3125 34.6535 21.3125 33.5834C21.3125 32.5134 22.1799 31.6459 23.25 31.6459H29.0625V25.8334C29.0625 24.7633 29.9299 23.8959 31 23.8959Z" fill="#1A1528"/>
</svg>
